<svg xmlns="http://www.w3.org/2000/svg" viewBox="0 0 800 800" width="800" height="800">
  <defs>
    <radialGradient id="bg1" cx="30%" cy="25%" r="90%">
      <stop offset="0%" stop-color="#241a4a"/>
      <stop offset="45%" stop-color="#120a2e"/>
      <stop offset="100%" stop-color="#05040d"/>
    </radialGradient>
    <radialGradient id="glow1" cx="50%" cy="50%" r="50%">
      <stop offset="0%" stop-color="#b98cff" stop-opacity="0.9"/>
      <stop offset="55%" stop-color="#8a4bff" stop-opacity="0.35"/>
      <stop offset="100%" stop-color="#8a4bff" stop-opacity="0"/>
    </radialGradient>
    <linearGradient id="ring1" x1="0%" y1="0%" x2="100%" y2="100%">
      <stop offset="0%" stop-color="#00f5ff"/>
      <stop offset="100%" stop-color="#8a4bff"/>
    </linearGradient>
  </defs>
  <rect width="800" height="800" fill="url(#bg1)"/>
  <circle cx="400" cy="360" r="260" fill="url(#glow1)"/>
  <g fill="none" stroke="url(#ring1)" stroke-width="2" opacity="0.55">
    <ellipse cx="400" cy="360" rx="300" ry="120" transform="rotate(-18 400 360)"/>
    <ellipse cx="400" cy="360" rx="230" ry="230"/>
    <ellipse cx="400" cy="360" rx="340" ry="150" transform="rotate(28 400 360)"/>
  </g>
  <g fill="#e9e2ff">
    <circle cx="180" cy="210" r="3.5"/>
    <circle cx="610" cy="180" r="2.5"/>
    <circle cx="660" cy="470" r="3"/>
    <circle cx="150" cy="520" r="2.5"/>
    <circle cx="360" cy="120" r="2"/>
    <circle cx="520" cy="600" r="2.5"/>
    <circle cx="240" cy="600" r="3"/>
  </g>
  <circle cx="400" cy="360" r="72" fill="#0b0620" stroke="url(#ring1)" stroke-width="3"/>
  <path d="M366 328 L400 400 L434 328" fill="none" stroke="#f4f0ff" stroke-width="9" stroke-linecap="round" stroke-linejoin="round"/>
  <g transform="translate(400,676)" text-anchor="middle">
    <circle r="26" fill="none" stroke="url(#ring1)" stroke-width="2.5"/>
    <text y="9" font-family="Menlo, monospace" font-size="26" font-weight="700" fill="#f4f0ff">V</text>
  </g>
  <text x="400" y="726" text-anchor="middle" font-family="Menlo, monospace" font-size="20" letter-spacing="6" fill="#cfc4ff" opacity="0.85">VANTAGE</text>
</svg>
